<svg width="18" height="24" viewBox="0 0 18 24" fill="none" xmlns="http://www.w3.org/2000/svg">
<path d="M12.2519 4.47147C12.6698 3.98983 12.9885 3.43038 13.1895 2.82524C13.3906 2.22011 13.4702 1.58122 13.4236 0.945251C12.1407 1.04881 10.9498 1.65222 10.1074 2.62546C9.70409 3.09191 9.39842 3.63455 9.20855 4.22126C9.01868 4.80797 8.94846 5.42681 9.00205 6.04114C9.62787 6.04636 10.2465 5.90749 10.81 5.6353C11.3736 5.36311 11.8669 4.9649 12.2519 4.47147ZM15.0375 12.6956C15.0449 11.8486 15.2681 11.0174 15.6858 10.2806C16.1036 9.54369 16.7022 8.92541 17.4252 8.48407C16.9689 7.82662 16.3657 7.28453 15.6635 6.90078C14.9612 6.51703 14.1792 6.30218 13.3794 6.27328C11.655 6.09641 10.0632 7.27919 9.14575 7.27919C8.22827 7.27919 6.93495 6.29538 5.49794 6.31749C4.55849 6.34844 3.6431 6.62234 2.84105 7.11248C2.039 7.60262 1.37768 8.29227 0.921583 9.11415C-1.02392 12.4967 0.424153 17.5262 2.36966 20.2566C3.25397 21.5941 4.35937 23.1085 5.8185 23.0532C7.27763 22.998 7.75295 22.1468 9.44421 22.1468C11.1355 22.1468 11.655 23.0532 13.092 23.0201C14.529 22.9869 15.546 21.6494 16.4745 20.3118C17.1323 19.3408 17.6461 18.2797 18 17.1615C17.1239 16.7878 16.3765 16.1658 15.85 15.3722C15.3236 14.5785 15.0411 13.648 15.0375 12.6956Z" fill="black" fill-opacity="0.5"/>
</svg>
