<svg width="18" height="20" viewBox="0 0 18 20" fill="none" xmlns="http://www.w3.org/2000/svg">
<path d="M0.977144 5.87655C1.74123 4.35504 2.9134 3.076 4.36264 2.18239C5.81188 1.28878 7.48108 0.815809 9.18367 0.816346C11.6587 0.816346 13.7379 1.72645 15.3276 3.20869L12.6946 5.84257C11.7422 4.93247 10.5318 4.46869 9.18367 4.46869C6.79133 4.46869 4.76633 6.08502 4.04541 8.25512C3.86174 8.80614 3.75704 9.3939 3.75704 10C3.75704 10.6061 3.86174 11.1939 4.04541 11.7449C4.76725 13.9159 6.79133 15.5313 9.18367 15.5313C10.4189 15.5313 11.4704 15.2053 12.2933 14.6543C12.7703 14.3402 13.1787 13.9327 13.4938 13.4563C13.8088 12.9799 14.024 12.4446 14.1263 11.8827H9.18367V8.33043H17.8329C17.9412 8.93104 18 9.55737 18 10.2085C18 13.0058 16.999 15.3605 15.2614 16.9585C13.7424 18.3618 11.6633 19.1837 9.18367 19.1837C7.97752 19.1842 6.7831 18.947 5.66866 18.4856C4.55423 18.0243 3.54164 17.3478 2.68876 16.4949C1.83588 15.6421 1.15943 14.6295 0.698083 13.515C0.236731 12.4006 -0.000482016 11.2062 7.3535e-07 10C7.3535e-07 8.51777 0.354491 7.11635 0.977144 5.87655Z" fill="black" fill-opacity="0.5"/>
</svg>
