<svg width="20" height="21" viewBox="0 0 20 21" fill="none" xmlns="http://www.w3.org/2000/svg">
<path d="M7 0.995796V2.9958H13V0.995796H15V2.9958H19C19.2652 2.9958 19.5196 3.10115 19.7071 3.28869C19.8946 3.47623 20 3.73058 20 3.9958V19.9958C20 20.261 19.8946 20.5154 19.7071 20.7029C19.5196 20.8904 19.2652 20.9958 19 20.9958H1C0.734784 20.9958 0.48043 20.8904 0.292893 20.7029C0.105357 20.5154 0 20.261 0 19.9958V3.9958C0 3.73058 0.105357 3.47623 0.292893 3.28869C0.48043 3.10115 0.734784 2.9958 1 2.9958H5V0.995796H7ZM18 10.9958H2V18.9958H18V10.9958ZM5 4.9958H2V8.9958H18V4.9958H15V6.9958H13V4.9958H7V6.9958H5V4.9958Z" fill="#484848"/>
</svg>
