<svg width="18" height="20" viewBox="0 0 18 20" fill="none" xmlns="http://www.w3.org/2000/svg">
<path d="M7.00011 11.9958H11.0001V18.9958H7.00011V11.9958Z" fill="#484848"/>
<path d="M17.4201 8.1758L9.71012 0.295798C9.61715 0.20207 9.50655 0.127676 9.38469 0.0769069C9.26283 0.0261382 9.13213 0 9.00012 0C8.8681 0 8.7374 0.0261382 8.61554 0.0769069C8.49368 0.127676 8.38308 0.20207 8.29012 0.295798L0.580115 8.1858C0.393552 8.37387 0.24621 8.59712 0.146643 8.84261C0.0470768 9.08809 -0.00272978 9.35091 0.000115364 9.6158V17.9958C-0.00065946 18.5077 0.194889 19.0004 0.54649 19.3725C0.898091 19.7446 1.37898 19.9676 1.89012 19.9958H5.00012V10.9958C5.00012 10.7306 5.10547 10.4762 5.29301 10.2887C5.48055 10.1012 5.7349 9.9958 6.00012 9.9958H12.0001C12.2653 9.9958 12.5197 10.1012 12.7072 10.2887C12.8948 10.4762 13.0001 10.7306 13.0001 10.9958V19.9958H16.1101C16.6213 19.9676 17.1021 19.7446 17.4537 19.3725C17.8053 19.0004 18.0009 18.5077 18.0001 17.9958V9.6158C18.0009 9.07873 17.7929 8.56238 17.4201 8.1758Z" fill="#484848"/>
</svg>
