<svg width="19" height="19" viewBox="0 0 19 19" fill="none" xmlns="http://www.w3.org/2000/svg">
<path d="M4.11231 15.765L0 18.9958V1.91887C0 1.67405 0.0972524 1.43926 0.270363 1.26615C0.443473 1.09304 0.678262 0.995789 0.923077 0.995789H17.5385C17.7833 0.995789 18.0181 1.09304 18.1912 1.26615C18.3643 1.43926 18.4615 1.67405 18.4615 1.91887V14.8419C18.4615 15.0868 18.3643 15.3215 18.1912 15.4947C18.0181 15.6678 17.7833 15.765 17.5385 15.765H4.11231ZM3.47354 13.9189H16.6154V2.84194H1.84615V15.1973L3.47354 13.9189ZM8.30769 7.45733H10.1538V9.30348H8.30769V7.45733ZM4.61538 7.45733H6.46154V9.30348H4.61538V7.45733ZM12 7.45733H13.8462V9.30348H12V7.45733Z" fill="#484848"/>
</svg>
