<svg width="22" height="23" viewBox="0 0 22 23" fill="none" xmlns="http://www.w3.org/2000/svg">
<path d="M21 3.99579C21 2.89122 20.1046 1.99579 19 1.99579H3C1.89543 1.99579 1 2.89122 1 3.99579V19.9958C1 21.1004 1.89543 21.9958 3 21.9958H19C20.1046 21.9958 21 21.1004 21 19.9958V3.99579Z" stroke="#484848" stroke-width="2"/>
<mask id="path-2-inside-1_6_85" fill="white">
<path fill-rule="evenodd" clip-rule="evenodd" d="M15.5 5.99579C15.5 5.79688 15.421 5.60611 15.2803 5.46546C15.1397 5.32481 14.9489 5.24579 14.75 5.24579C14.5511 5.24579 14.3603 5.32481 14.2197 5.46546C14.079 5.60611 14 5.79688 14 5.99579V6.74579H5C4.80109 6.74579 4.61032 6.82481 4.46967 6.96546C4.32902 7.10611 4.25 7.29688 4.25 7.49579C4.25 7.6947 4.32902 7.88547 4.46967 8.02612C4.61032 8.16677 4.80109 8.24579 5 8.24579H14V8.99579C14 9.1947 14.079 9.38547 14.2197 9.52612C14.3603 9.66677 14.5511 9.74579 14.75 9.74579C14.9489 9.74579 15.1397 9.66677 15.2803 9.52612C15.421 9.38547 15.5 9.1947 15.5 8.99579V8.24579H17C17.1989 8.24579 17.3897 8.16677 17.5303 8.02612C17.671 7.88547 17.75 7.6947 17.75 7.49579C17.75 7.29688 17.671 7.10611 17.5303 6.96546C17.3897 6.82481 17.1989 6.74579 17 6.74579H15.5V5.99579ZM5 11.2458C4.80109 11.2458 4.61032 11.3248 4.46967 11.4655C4.32902 11.6061 4.25 11.7969 4.25 11.9958C4.25 12.1947 4.32902 12.3855 4.46967 12.5261C4.61032 12.6668 4.80109 12.7458 5 12.7458H6.5V13.4958C6.5 13.6947 6.57902 13.8855 6.71967 14.0261C6.86032 14.1668 7.05109 14.2458 7.25 14.2458C7.44891 14.2458 7.63968 14.1668 7.78033 14.0261C7.92098 13.8855 8 13.6947 8 13.4958V12.7458H17C17.1989 12.7458 17.3897 12.6668 17.5303 12.5261C17.671 12.3855 17.75 12.1947 17.75 11.9958C17.75 11.7969 17.671 11.6061 17.5303 11.4655C17.3897 11.3248 17.1989 11.2458 17 11.2458H8V10.4958C8 10.2969 7.92098 10.1061 7.78033 9.96546C7.63968 9.82481 7.44891 9.74579 7.25 9.74579C7.05109 9.74579 6.86032 9.82481 6.71967 9.96546C6.57902 10.1061 6.5 10.2969 6.5 10.4958V11.2458H5ZM4.25 16.4958C4.25 16.2969 4.32902 16.1061 4.46967 15.9655C4.61032 15.8248 4.80109 15.7458 5 15.7458H14V14.9958C14 14.7969 14.079 14.6061 14.2197 14.4655C14.3603 14.3248 14.5511 14.2458 14.75 14.2458C14.9489 14.2458 15.1397 14.3248 15.2803 14.4655C15.421 14.6061 15.5 14.7969 15.5 14.9958V15.7458H17C17.1989 15.7458 17.3897 15.8248 17.5303 15.9655C17.671 16.1061 17.75 16.2969 17.75 16.4958C17.75 16.6947 17.671 16.8855 17.5303 17.0261C17.3897 17.1668 17.1989 17.2458 17 17.2458H15.5V17.9958C15.5 18.1947 15.421 18.3855 15.2803 18.5261C15.1397 18.6668 14.9489 18.7458 14.75 18.7458C14.5511 18.7458 14.3603 18.6668 14.2197 18.5261C14.079 18.3855 14 18.1947 14 17.9958V17.2458H5C4.80109 17.2458 4.61032 17.1668 4.46967 17.0261C4.32902 16.8855 4.25 16.6947 4.25 16.4958Z"/>
</mask>
<path fill-rule="evenodd" clip-rule="evenodd" d="M15.5 5.99579C15.5 5.79688 15.421 5.60611 15.2803 5.46546C15.1397 5.32481 14.9489 5.24579 14.75 5.24579C14.5511 5.24579 14.3603 5.32481 14.2197 5.46546C14.079 5.60611 14 5.79688 14 5.99579V6.74579H5C4.80109 6.74579 4.61032 6.82481 4.46967 6.96546C4.32902 7.10611 4.25 7.29688 4.25 7.49579C4.25 7.6947 4.32902 7.88547 4.46967 8.02612C4.61032 8.16677 4.80109 8.24579 5 8.24579H14V8.99579C14 9.1947 14.079 9.38547 14.2197 9.52612C14.3603 9.66677 14.5511 9.74579 14.75 9.74579C14.9489 9.74579 15.1397 9.66677 15.2803 9.52612C15.421 9.38547 15.5 9.1947 15.5 8.99579V8.24579H17C17.1989 8.24579 17.3897 8.16677 17.5303 8.02612C17.671 7.88547 17.75 7.6947 17.75 7.49579C17.75 7.29688 17.671 7.10611 17.5303 6.96546C17.3897 6.82481 17.1989 6.74579 17 6.74579H15.5V5.99579ZM5 11.2458C4.80109 11.2458 4.61032 11.3248 4.46967 11.4655C4.32902 11.6061 4.25 11.7969 4.25 11.9958C4.25 12.1947 4.32902 12.3855 4.46967 12.5261C4.61032 12.6668 4.80109 12.7458 5 12.7458H6.5V13.4958C6.5 13.6947 6.57902 13.8855 6.71967 14.0261C6.86032 14.1668 7.05109 14.2458 7.25 14.2458C7.44891 14.2458 7.63968 14.1668 7.78033 14.0261C7.92098 13.8855 8 13.6947 8 13.4958V12.7458H17C17.1989 12.7458 17.3897 12.6668 17.5303 12.5261C17.671 12.3855 17.75 12.1947 17.75 11.9958C17.75 11.7969 17.671 11.6061 17.5303 11.4655C17.3897 11.3248 17.1989 11.2458 17 11.2458H8V10.4958C8 10.2969 7.92098 10.1061 7.78033 9.96546C7.63968 9.82481 7.44891 9.74579 7.25 9.74579C7.05109 9.74579 6.86032 9.82481 6.71967 9.96546C6.57902 10.1061 6.5 10.2969 6.5 10.4958V11.2458H5ZM4.25 16.4958C4.25 16.2969 4.32902 16.1061 4.46967 15.9655C4.61032 15.8248 4.80109 15.7458 5 15.7458H14V14.9958C14 14.7969 14.079 14.6061 14.2197 14.4655C14.3603 14.3248 14.5511 14.2458 14.75 14.2458C14.9489 14.2458 15.1397 14.3248 15.2803 14.4655C15.421 14.6061 15.5 14.7969 15.5 14.9958V15.7458H17C17.1989 15.7458 17.3897 15.8248 17.5303 15.9655C17.671 16.1061 17.75 16.2969 17.75 16.4958C17.75 16.6947 17.671 16.8855 17.5303 17.0261C17.3897 17.1668 17.1989 17.2458 17 17.2458H15.5V17.9958C15.5 18.1947 15.421 18.3855 15.2803 18.5261C15.1397 18.6668 14.9489 18.7458 14.75 18.7458C14.5511 18.7458 14.3603 18.6668 14.2197 18.5261C14.079 18.3855 14 18.1947 14 17.9958V17.2458H5C4.80109 17.2458 4.61032 17.1668 4.46967 17.0261C4.32902 16.8855 4.25 16.6947 4.25 16.4958Z" fill="#484848"/>
<path d="M14.75 5.24579V3.24579V5.24579ZM14 6.74579V8.74579H16V6.74579H14ZM4.25 7.49579H2.25H4.25ZM14 8.24579H16V6.24579H14V8.24579ZM15.5 8.24579V6.24579H13.5V8.24579H15.5ZM15.5 6.74579H13.5V8.74579H15.5V6.74579ZM4.25 11.9958H2.25H4.25ZM6.5 12.7458H8.5V10.7458H6.5V12.7458ZM8 12.7458V10.7458H6V12.7458H8ZM8 11.2458H6V13.2458H8V11.2458ZM6.5 11.2458V13.2458H8.5V11.2458H6.5ZM4.25 16.4958H2.25H4.25ZM14 15.7458V17.7458H16V15.7458H14ZM15.5 15.7458H13.5V17.7458H15.5V15.7458ZM15.5 17.2458V15.2458H13.5V17.2458H15.5ZM14 17.2458H16V15.2458H14V17.2458ZM17.5 5.99579C17.5 5.26645 17.2103 4.56697 16.6945 4.05124L13.8661 6.87967C13.6317 6.64525 13.5 6.32731 13.5 5.99579H17.5ZM16.6945 4.05124C16.1788 3.53552 15.4793 3.24579 14.75 3.24579V7.24579C14.4185 7.24579 14.1005 7.11409 13.8661 6.87967L16.6945 4.05124ZM14.75 3.24579C14.0207 3.24579 13.3212 3.53552 12.8055 4.05124L15.6339 6.87967C15.3995 7.11409 15.0815 7.24579 14.75 7.24579V3.24579ZM12.8055 4.05124C12.2897 4.56697 12 5.26645 12 5.99579H16C16 6.32731 15.8683 6.64525 15.6339 6.87967L12.8055 4.05124ZM12 5.99579V6.74579H16V5.99579H12ZM14 4.74579H5V8.74579H14V4.74579ZM5 4.74579C4.27065 4.74579 3.57118 5.03552 3.05546 5.55125L5.88388 8.37967C5.64946 8.61409 5.33152 8.74579 5 8.74579V4.74579ZM3.05546 5.55125C2.53973 6.06697 2.25 6.76644 2.25 7.49579H6.25C6.25 7.82731 6.1183 8.14525 5.88388 8.37967L3.05546 5.55125ZM2.25 7.49579C2.25 8.22513 2.53973 8.92461 3.05546 9.44033L5.88388 6.6119C6.1183 6.84633 6.25 7.16427 6.25 7.49579H2.25ZM3.05546 9.44033C3.57118 9.95606 4.27065 10.2458 5 10.2458V6.24579C5.33152 6.24579 5.64946 6.37749 5.88388 6.6119L3.05546 9.44033ZM5 10.2458H14V6.24579H5V10.2458ZM12 8.24579V8.99579H16V8.24579H12ZM12 8.99579C12 9.72513 12.2897 10.4246 12.8055 10.9403L15.6339 8.1119C15.8683 8.34633 16 8.66427 16 8.99579H12ZM12.8055 10.9403C13.3212 11.4561 14.0207 11.7458 14.75 11.7458V7.74579C15.0815 7.74579 15.3995 7.87748 15.6339 8.1119L12.8055 10.9403ZM14.75 11.7458C15.4793 11.7458 16.1788 11.4561 16.6945 10.9403L13.8661 8.1119C14.1005 7.87748 14.4185 7.74579 14.75 7.74579V11.7458ZM16.6945 10.9403C17.2103 10.4246 17.5 9.72513 17.5 8.99579H13.5C13.5 8.66427 13.6317 8.34633 13.8661 8.1119L16.6945 10.9403ZM17.5 8.99579V8.24579H13.5V8.99579H17.5ZM15.5 10.2458H17V6.24579H15.5V10.2458ZM17 10.2458C17.7293 10.2458 18.4288 9.95606 18.9445 9.44033L16.1161 6.6119C16.3505 6.37748 16.6685 6.24579 17 6.24579V10.2458ZM18.9445 9.44033C19.4603 8.9246 19.75 8.22513 19.75 7.49579H15.75C15.75 7.16427 15.8817 6.84633 16.1161 6.6119L18.9445 9.44033ZM19.75 7.49579C19.75 6.76645 19.4603 6.06697 18.9445 5.55125L16.1161 8.37967C15.8817 8.14525 15.75 7.82731 15.75 7.49579H19.75ZM18.9445 5.55125C18.4288 5.03552 17.7293 4.74579 17 4.74579V8.74579C16.6685 8.74579 16.3505 8.61409 16.1161 8.37967L18.9445 5.55125ZM17 4.74579H15.5V8.74579H17V4.74579ZM17.5 6.74579V5.99579H13.5V6.74579H17.5ZM5 9.24579C4.27065 9.24579 3.57118 9.53552 3.05546 10.0512L5.88388 12.8797C5.64946 13.1141 5.33152 13.2458 5 13.2458V9.24579ZM3.05546 10.0512C2.53973 10.567 2.25 11.2664 2.25 11.9958H6.25C6.25 12.3273 6.1183 12.6453 5.88388 12.8797L3.05546 10.0512ZM2.25 11.9958C2.25 12.7251 2.53973 13.4246 3.05546 13.9403L5.88388 11.1119C6.1183 11.3463 6.25 11.6643 6.25 11.9958H2.25ZM3.05546 13.9403C3.57118 14.4561 4.27065 14.7458 5 14.7458V10.7458C5.33152 10.7458 5.64946 10.8775 5.88388 11.1119L3.05546 13.9403ZM5 14.7458H6.5V10.7458H5V14.7458ZM4.5 12.7458V13.4958H8.5V12.7458H4.5ZM4.5 13.4958C4.5 14.2251 4.78973 14.9246 5.30546 15.4403L8.13388 12.6119C8.3683 12.8463 8.5 13.1643 8.5 13.4958H4.5ZM5.30546 15.4403C5.82118 15.9561 6.52065 16.2458 7.25 16.2458V12.2458C7.58152 12.2458 7.89946 12.3775 8.13388 12.6119L5.30546 15.4403ZM7.25 16.2458C7.97935 16.2458 8.67882 15.9561 9.19454 15.4403L6.36612 12.6119C6.60054 12.3775 6.91848 12.2458 7.25 12.2458V16.2458ZM9.19454 15.4403C9.71027 14.9246 10 14.2251 10 13.4958H6C6 13.1643 6.1317 12.8463 6.36612 12.6119L9.19454 15.4403ZM10 13.4958V12.7458H6V13.4958H10ZM8 14.7458H17V10.7458H8V14.7458ZM17 14.7458C17.7293 14.7458 18.4288 14.4561 18.9445 13.9403L16.1161 11.1119C16.3505 10.8775 16.6685 10.7458 17 10.7458V14.7458ZM18.9445 13.9403C19.4603 13.4246 19.75 12.7251 19.75 11.9958H15.75C15.75 11.6643 15.8817 11.3463 16.1161 11.1119L18.9445 13.9403ZM19.75 11.9958C19.75 11.2664 19.4603 10.567 18.9445 10.0512L16.1161 12.8797C15.8817 12.6452 15.75 12.3273 15.75 11.9958H19.75ZM18.9445 10.0512C18.4288 9.53552 17.7293 9.24579 17 9.24579V13.2458C16.6685 13.2458 16.3505 13.1141 16.1161 12.8797L18.9445 10.0512ZM17 9.24579H8V13.2458H17V9.24579ZM10 11.2458V10.4958H6V11.2458H10ZM10 10.4958C10 9.76644 9.71027 9.06697 9.19454 8.55124L6.36612 11.3797C6.1317 11.1453 6 10.8273 6 10.4958H10ZM9.19454 8.55124C8.67882 8.03552 7.97935 7.74579 7.25 7.74579V11.7458C6.91848 11.7458 6.60054 11.6141 6.36612 11.3797L9.19454 8.55124ZM7.25 7.74579C6.52065 7.74579 5.82118 8.03552 5.30546 8.55124L8.13388 11.3797C7.89946 11.6141 7.58152 11.7458 7.25 11.7458V7.74579ZM5.30546 8.55124C4.78973 9.06697 4.5 9.76644 4.5 10.4958H8.5C8.5 10.8273 8.3683 11.1453 8.13388 11.3797L5.30546 8.55124ZM4.5 10.4958V11.2458H8.5V10.4958H4.5ZM6.5 9.24579H5V13.2458H6.5V9.24579ZM6.25 16.4958C6.25 16.8273 6.11831 17.1452 5.88388 17.3797L3.05546 14.5512C2.53973 15.067 2.25 15.7664 2.25 16.4958H6.25ZM5.88388 17.3797C5.64946 17.6141 5.33152 17.7458 5 17.7458V13.7458C4.27066 13.7458 3.57118 14.0355 3.05546 14.5512L5.88388 17.3797ZM5 17.7458H14V13.7458H5V17.7458ZM16 15.7458V14.9958H12V15.7458H16ZM16 14.9958C16 15.3273 15.8683 15.6452 15.6339 15.8797L12.8055 13.0512C12.2897 13.567 12 14.2664 12 14.9958H16ZM15.6339 15.8797C15.3995 16.1141 15.0815 16.2458 14.75 16.2458V12.2458C14.0207 12.2458 13.3212 12.5355 12.8055 13.0512L15.6339 15.8797ZM14.75 16.2458C14.4185 16.2458 14.1005 16.1141 13.8661 15.8797L16.6945 13.0512C16.1788 12.5355 15.4793 12.2458 14.75 12.2458V16.2458ZM13.8661 15.8797C13.6317 15.6452 13.5 15.3273 13.5 14.9958H17.5C17.5 14.2664 17.2103 13.567 16.6945 13.0512L13.8661 15.8797ZM13.5 14.9958V15.7458H17.5V14.9958H13.5ZM15.5 17.7458H17V13.7458H15.5V17.7458ZM17 17.7458C16.6685 17.7458 16.3505 17.6141 16.1161 17.3797L18.9445 14.5512C18.4288 14.0355 17.7293 13.7458 17 13.7458V17.7458ZM16.1161 17.3797C15.8817 17.1452 15.75 16.8273 15.75 16.4958H19.75C19.75 15.7664 19.4603 15.067 18.9445 14.5512L16.1161 17.3797ZM15.75 16.4958C15.75 16.1643 15.8817 15.8463 16.1161 15.6119L18.9445 18.4403C19.4603 17.9246 19.75 17.2251 19.75 16.4958H15.75ZM16.1161 15.6119C16.3505 15.3775 16.6685 15.2458 17 15.2458V19.2458C17.7293 19.2458 18.4288 18.9561 18.9445 18.4403L16.1161 15.6119ZM17 15.2458H15.5V19.2458H17V15.2458ZM13.5 17.2458V17.9958H17.5V17.2458H13.5ZM13.5 17.9958C13.5 17.6643 13.6317 17.3463 13.8661 17.1119L16.6945 19.9403C17.2103 19.4246 17.5 18.7251 17.5 17.9958H13.5ZM13.8661 17.1119C14.1005 16.8775 14.4185 16.7458 14.75 16.7458V20.7458C15.4793 20.7458 16.1788 20.4561 16.6945 19.9403L13.8661 17.1119ZM14.75 16.7458C15.0815 16.7458 15.3995 16.8775 15.6339 17.1119L12.8055 19.9403C13.3212 20.4561 14.0207 20.7458 14.75 20.7458V16.7458ZM15.6339 17.1119C15.8683 17.3463 16 17.6643 16 17.9958H12C12 18.7251 12.2897 19.4246 12.8055 19.9403L15.6339 17.1119ZM16 17.9958V17.2458H12V17.9958H16ZM14 15.2458H5V19.2458H14V15.2458ZM5 15.2458C5.33152 15.2458 5.64946 15.3775 5.88388 15.6119L3.05546 18.4403C3.57118 18.9561 4.27066 19.2458 5 19.2458V15.2458ZM5.88388 15.6119C6.11831 15.8463 6.25 16.1643 6.25 16.4958H2.25C2.25 17.2251 2.53973 17.9246 3.05546 18.4403L5.88388 15.6119Z" fill="#484848" mask="url(#path-2-inside-1_6_85)"/>
</svg>
