<svg width="18" height="16" viewBox="0 0 18 16" fill="none" xmlns="http://www.w3.org/2000/svg">
<path fill-rule="evenodd" clip-rule="evenodd" d="M9.0103 2.49203L8.0777 1.55943C7.6406 1.11643 7.12019 0.764274 6.54643 0.52323C5.97267 0.282186 5.35689 0.157019 4.73456 0.154934C4.11223 0.152849 3.49563 0.273888 2.92027 0.511082C2.34491 0.748277 1.82215 1.09694 1.38209 1.537C0.942033 1.97706 0.593369 2.49982 0.356175 3.07518C0.118981 3.65054 -0.00205841 4.26714 2.64824e-05 4.88947C0.00211138 5.5118 0.127279 6.12758 0.368323 6.70133C0.609367 7.27509 0.961526 7.79551 1.40452 8.2326L8.98799 15.8161L8.98971 15.8144L9.01201 15.8367L16.5955 8.2532C17.0385 7.8161 17.3906 7.29569 17.6317 6.72193C17.8727 6.14817 17.9979 5.53239 18 4.91006C18.0021 4.28773 17.881 3.67113 17.6438 3.09577C17.4066 2.52041 17.058 1.99765 16.6179 1.55759C16.1779 1.11753 15.6551 0.768867 15.0797 0.531673C14.5044 0.294479 13.8878 0.17344 13.2654 0.175525C12.6431 0.177609 12.0273 0.302777 11.4536 0.543821C10.8798 0.784865 10.3594 1.13702 9.9223 1.58002L9.0103 2.49203ZM8.98971 13.3881L13.2246 9.15233L14.4686 7.9512H14.4703L15.3823 7.04005C15.9455 6.47688 16.2619 5.71305 16.2619 4.91661C16.2619 4.12016 15.9455 3.35634 15.3823 2.79317C14.8192 2.23 14.0553 1.91361 13.2589 1.91361C12.4624 1.91361 11.6986 2.23 11.1355 2.79317L9.01115 4.91832L9.00515 4.91232L6.86455 2.77344C6.30138 2.21026 5.53755 1.89388 4.74111 1.89388C3.94467 1.89388 3.18084 2.21026 2.61767 2.77344C2.0545 3.33661 1.73811 4.10043 1.73811 4.89688C1.73811 5.69332 2.0545 6.45714 2.61767 7.02032L4.79688 9.19952L4.79774 9.19695L8.98971 13.3889V13.3881Z" fill="#484848"/>
</svg>
