<svg width="35" height="35" viewBox="0 0 35 35" fill="none" xmlns="http://www.w3.org/2000/svg">
<rect width="35" height="35" rx="7" fill="#7C7C7C"/>
<path d="M22.9922 21.75C22.9062 22.5078 22.5117 23.2773 21.8086 24.0586C20.7148 25.3008 19.1836 25.9219 17.2148 25.9219C15.5898 25.9219 14.1562 25.3984 12.9141 24.3516C11.6719 23.3047 11.0508 21.6016 11.0508 19.2422C11.0508 17.0312 11.6094 15.3359 12.7266 14.1562C13.8516 12.9766 15.3086 12.3867 17.0977 12.3867C18.1602 12.3867 19.1172 12.5859 19.9688 12.9844C20.8203 13.3828 21.5234 14.0117 22.0781 14.8711C22.5781 15.6289 22.9023 16.5078 23.0508 17.5078C23.1367 18.0938 23.1719 18.9375 23.1562 20.0391H14.4141C14.4609 21.3203 14.8633 22.2188 15.6211 22.7344C16.082 23.0547 16.6367 23.2148 17.2852 23.2148C17.9727 23.2148 18.5312 23.0195 18.9609 22.6289C19.1953 22.418 19.4023 22.125 19.582 21.75H22.9922ZM19.6875 17.8359C19.6328 16.9531 19.3633 16.2852 18.8789 15.832C18.4023 15.3711 17.8086 15.1406 17.0977 15.1406C16.3242 15.1406 15.7227 15.3828 15.293 15.8672C14.8711 16.3516 14.6055 17.0078 14.4961 17.8359H19.6875ZM12.7266 9.08203H21.0586V10.8633H12.7266V9.08203Z" fill="white"/>
</svg>
