<svg width="16" height="16" viewBox="0 0 16 16" fill="none" xmlns="http://www.w3.org/2000/svg">
<path d="M14.5 14.5L10.1667 10.1667M1.5 6.55556C1.5 7.21946 1.63077 7.87686 1.88483 8.49023C2.1389 9.1036 2.51129 9.66092 2.98074 10.1304C3.45019 10.5998 4.00751 10.9722 4.62088 11.2263C5.23425 11.4803 5.89165 11.6111 6.55556 11.6111C7.21946 11.6111 7.87686 11.4803 8.49023 11.2263C9.1036 10.9722 9.66092 10.5998 10.1304 10.1304C10.5998 9.66092 10.9722 9.1036 11.2263 8.49023C11.4803 7.87686 11.6111 7.21946 11.6111 6.55556C11.6111 5.89165 11.4803 5.23425 11.2263 4.62088C10.9722 4.00751 10.5998 3.45019 10.1304 2.98074C9.66092 2.51129 9.1036 2.1389 8.49023 1.88483C7.87686 1.63077 7.21946 1.5 6.55556 1.5C5.89165 1.5 5.23425 1.63077 4.62088 1.88483C4.00751 2.1389 3.45019 2.51129 2.98074 2.98074C2.51129 3.45019 2.1389 4.00751 1.88483 4.62088C1.63077 5.23425 1.5 5.89165 1.5 6.55556Z" stroke="black" stroke-opacity="0.25" stroke-width="2" stroke-linecap="round" stroke-linejoin="round"/>
</svg>
